<mxfile host="Electron" modified="2023-11-05T12:27:01.932Z" agent="Mozilla/5.0 (Windows NT 10.0; Win64; x64) AppleWebKit/537.36 (KHTML, like Gecko) draw.io/22.0.3 Chrome/114.0.5735.289 Electron/25.8.4 Safari/537.36" etag="JA8WpgRqQpXV8MZamSvB" version="22.0.3" type="device">
  <diagram name="Sayfa -1" id="68pWTK7RyLyFcUbv9fXp">
    <mxGraphModel dx="1036" dy="606" grid="1" gridSize="10" guides="1" tooltips="1" connect="1" arrows="1" fold="1" page="1" pageScale="1" pageWidth="827" pageHeight="1169" math="0" shadow="0">
      <root>
        <mxCell id="0" />
        <mxCell id="1" parent="0" />
        <mxCell id="HIvWHFDmqsy8JIsmlkL5-3" style="edgeStyle=orthogonalEdgeStyle;rounded=0;orthogonalLoop=1;jettySize=auto;html=1;" edge="1" parent="1" source="HIvWHFDmqsy8JIsmlkL5-1">
          <mxGeometry relative="1" as="geometry">
            <mxPoint x="360" y="150" as="targetPoint" />
          </mxGeometry>
        </mxCell>
        <mxCell id="HIvWHFDmqsy8JIsmlkL5-1" value="start" style="ellipse;whiteSpace=wrap;html=1;" vertex="1" parent="1">
          <mxGeometry x="300" y="10" width="120" height="80" as="geometry" />
        </mxCell>
        <mxCell id="HIvWHFDmqsy8JIsmlkL5-2" value="Fahrenheit==F&lt;br&gt;Derece==C" style="rounded=0;whiteSpace=wrap;html=1;" vertex="1" parent="1">
          <mxGeometry x="300" y="150" width="120" height="60" as="geometry" />
        </mxCell>
        <mxCell id="HIvWHFDmqsy8JIsmlkL5-4" value="F giriniz" style="shape=parallelogram;perimeter=parallelogramPerimeter;whiteSpace=wrap;html=1;fixedSize=1;" vertex="1" parent="1">
          <mxGeometry x="294" y="280" width="120" height="60" as="geometry" />
        </mxCell>
        <mxCell id="HIvWHFDmqsy8JIsmlkL5-7" style="edgeStyle=orthogonalEdgeStyle;rounded=0;orthogonalLoop=1;jettySize=auto;html=1;entryX=0.55;entryY=0.167;entryDx=0;entryDy=0;entryPerimeter=0;" edge="1" parent="1" source="HIvWHFDmqsy8JIsmlkL5-2" target="HIvWHFDmqsy8JIsmlkL5-4">
          <mxGeometry relative="1" as="geometry" />
        </mxCell>
        <mxCell id="HIvWHFDmqsy8JIsmlkL5-11" style="edgeStyle=orthogonalEdgeStyle;rounded=0;orthogonalLoop=1;jettySize=auto;html=1;" edge="1" parent="1" source="HIvWHFDmqsy8JIsmlkL5-8">
          <mxGeometry relative="1" as="geometry">
            <mxPoint x="360" y="500" as="targetPoint" />
          </mxGeometry>
        </mxCell>
        <mxCell id="HIvWHFDmqsy8JIsmlkL5-8" value="C=(F-32)*5/9" style="rounded=0;whiteSpace=wrap;html=1;" vertex="1" parent="1">
          <mxGeometry x="300" y="400" width="120" height="60" as="geometry" />
        </mxCell>
        <mxCell id="HIvWHFDmqsy8JIsmlkL5-9" style="edgeStyle=orthogonalEdgeStyle;rounded=0;orthogonalLoop=1;jettySize=auto;html=1;entryX=0.44;entryY=-0.017;entryDx=0;entryDy=0;entryPerimeter=0;" edge="1" parent="1" source="HIvWHFDmqsy8JIsmlkL5-4" target="HIvWHFDmqsy8JIsmlkL5-8">
          <mxGeometry relative="1" as="geometry" />
        </mxCell>
        <mxCell id="HIvWHFDmqsy8JIsmlkL5-13" style="edgeStyle=orthogonalEdgeStyle;rounded=0;orthogonalLoop=1;jettySize=auto;html=1;entryX=0.5;entryY=0;entryDx=0;entryDy=0;" edge="1" parent="1" source="HIvWHFDmqsy8JIsmlkL5-10" target="HIvWHFDmqsy8JIsmlkL5-12">
          <mxGeometry relative="1" as="geometry" />
        </mxCell>
        <mxCell id="HIvWHFDmqsy8JIsmlkL5-10" value="C" style="shape=document;whiteSpace=wrap;html=1;boundedLbl=1;" vertex="1" parent="1">
          <mxGeometry x="294" y="510" width="120" height="80" as="geometry" />
        </mxCell>
        <mxCell id="HIvWHFDmqsy8JIsmlkL5-12" value="Finish" style="ellipse;whiteSpace=wrap;html=1;" vertex="1" parent="1">
          <mxGeometry x="294" y="630" width="120" height="80" as="geometry" />
        </mxCell>
      </root>
    </mxGraphModel>
  </diagram>
</mxfile>
